<?xml version="1.0" encoding="utf-8" ?><svg xmlns="http://www.w3.org/2000/svg" xmlns:xlink="http://www.w3.org/1999/xlink" width="100" height="100" viewBox="0 0 100 100"><path fill="#3B31F4" transform="scale(0.195312 0.195312)" d="M242.16 137.733C207.461 121.053 213.514 70.9512 253.328 66.3417C290.585 63.8927 307.57 112.941 277.096 133.883C274.961 135.35 272.581 136.518 270.295 137.733C270.008 143.155 270.284 148.75 270.286 154.19L270.295 187.95L305.642 187.937C312.585 187.935 319.638 187.678 326.569 188.058C373.138 190.61 411.184 222.252 427.269 265.034C446.547 270.936 442.475 291.72 442.471 307.463C442.468 319.841 444.781 338.843 428.893 343.185C427.839 356.739 418.606 377.172 410.745 388.321C393.316 413.037 364.382 429.35 334.537 432.925C323.146 434.289 311.745 434.059 300.298 434.061L258.661 434.055L213.374 434.064C203.755 434.064 194.035 434.365 184.434 433.688C134.217 430.144 91.4748 393.013 82.1112 343.185C70.6056 336.124 69.8876 330.723 69.9256 318.271L69.9344 304.513C69.9411 287.277 65.578 271.288 85.1149 263.835C99.9238 223.385 136.275 193.321 179.527 188.688C197.803 186.731 223.339 187.705 242.16 187.95L242.16 137.733ZM180.899 234.587C154.187 236.582 134.151 259.853 136.145 286.564C138.139 313.275 161.409 333.312 188.12 331.319C214.833 329.326 234.872 306.055 232.877 279.342C230.883 252.63 207.611 232.592 180.899 234.587ZM323.391 235.437C297.113 237.942 277.807 261.22 280.204 287.507C282.601 313.794 305.8 333.197 332.096 330.908C358.546 328.605 378.087 305.242 375.675 278.801C373.264 252.361 349.821 232.917 323.391 235.437ZM188.325 360.834L188.325 389.054L323.793 389.054C324.034 379.666 323.796 370.228 323.793 360.834L188.325 360.834Z"/><path fill="#3B31F4" transform="scale(0.195312 0.195312)" d="M186.124 303.169C175.237 304.456 165.368 296.669 164.089 285.78C162.809 274.892 170.604 265.029 181.493 263.758C192.372 262.488 202.222 270.272 203.5 281.15C204.778 292.027 197.001 301.882 186.124 303.169Z"/><path fill="#3B31F4" transform="scale(0.195312 0.195312)" d="M328.385 303.281C317.535 303.758 308.38 295.292 308.008 284.438C307.636 273.584 316.19 264.511 327.048 264.244C337.757 263.981 346.68 272.394 347.047 283.1C347.413 293.807 339.088 302.811 328.385 303.281Z"/></svg>